<svg width="54" height="54" viewBox="0 0 54 54" fill="none" xmlns="http://www.w3.org/2000/svg">
<path d="M44.26 0H9.74C4.36075 0 0 4.36075 0 9.74V44.26C0 49.6393 4.36075 54 9.74 54H44.26C49.6393 54 54 49.6393 54 44.26V9.74C54 4.36075 49.6393 0 44.26 0Z" fill="#001E36"/>
<path d="M27.28 41.88C25.144 41.88 23.464 41.46 22.24 40.62C21.04 39.78 20.2 38.64 19.72 37.2C19.24 35.736 19 34.056 19 32.16V21.756C19 19.764 19.24 18.036 19.72 16.572C20.2 15.108 21.04 13.98 22.24 13.188C23.464 12.396 25.144 12 27.28 12C29.296 12 30.868 12.348 31.996 13.044C33.148 13.716 33.964 14.688 34.444 15.96C34.924 17.232 35.164 18.708 35.164 20.388V22.836H30.052V20.316C30.052 19.5 30.004 18.756 29.908 18.084C29.836 17.412 29.608 16.884 29.224 16.5C28.864 16.092 28.228 15.888 27.316 15.888C26.404 15.888 25.732 16.104 25.3 16.536C24.892 16.944 24.628 17.508 24.508 18.228C24.388 18.924 24.328 19.716 24.328 20.604V33.276C24.328 34.332 24.412 35.208 24.58 35.904C24.748 36.576 25.048 37.092 25.48 37.452C25.936 37.788 26.548 37.956 27.316 37.956C28.204 37.956 28.828 37.752 29.188 37.344C29.572 36.912 29.812 36.348 29.908 35.652C30.004 34.956 30.052 34.176 30.052 33.312V30.684H35.164V33.024C35.164 34.752 34.936 36.288 34.48 37.632C34.024 38.952 33.22 39.996 32.068 40.764C30.94 41.508 29.344 41.88 27.28 41.88Z" fill="#31A8FF"/>
</svg>
